<?xml version="1.0" encoding="utf-8"?>
<!-- Generator: Adobe Illustrator 15.0.0, SVG Export Plug-In . SVG Version: 6.00 Build 0)  -->
<!DOCTYPE svg PUBLIC "-//W3C//DTD SVG 1.1//EN" "http://www.w3.org/Graphics/SVG/1.1/DTD/svg11.dtd">
<svg version="1.1" id="controls.fw-Page_x25_201" xmlns="http://www.w3.org/2000/svg" xmlns:xlink="http://www.w3.org/1999/xlink"
	 x="0px" y="0px" width="144px" height="32px" viewBox="0 0 144 32" enable-background="new 0 0 144 32" xml:space="preserve">
<path fill="#FFFFFF" d="M0,9.088c0-0.444,0-8.239,0-8.545C0,0.146,0.411-0.15,0.817,0.082C1.143,0.269,7.345,4.024,7.9,4.346
	c0.365,0.212,0.358,0.715,0,0.926C7.501,5.507,1.273,9.283,0.8,9.546C0.454,9.738,0,9.525,0,9.088z"/>
<g>
	<g>
		<path fill="#FFFFFF" d="M17.5,0h-1C15.671,0,15,0.671,15,1.5v8c0,0.829,0.671,1.5,1.5,1.5h1c0.829,0,1.5-0.671,1.5-1.5v-8
			C19,0.671,18.329,0,17.5,0z M11.5,0h-1C9.671,0,9,0.671,9,1.5v8c0,0.829,0.671,1.5,1.5,1.5h1c0.829,0,1.5-0.671,1.5-1.5v-8
			C13,0.671,12.329,0,11.5,0z"/>
	</g>
</g>
<g>
	<g>
		<path fill="#FFFFFF" d="M41.473,0h-0.469l-2,1.469c0,0-0.313,0.5-0.906,0.5h-2.125c0,0-0.969,0.063-0.969,1v2.969c0,0-0.125,1,1,1
			h2c0,0,0.688,0.125,1.031,0.5l1.969,1.469l0.5,0.063c0,0,0.531,0,0.531-0.5V0.5C42.035,0.5,42.004,0,41.473,0z M47.848,4.337
			l2.241-2.242c0.146-0.146,0.146-0.381,0-0.526l-0.791-0.791c-0.146-0.146-0.382-0.146-0.527,0l-2.241,2.241l-2.241-2.241
			c-0.146-0.146-0.382-0.146-0.527,0L42.97,1.568c-0.146,0.146-0.146,0.381,0,0.526l2.241,2.242l-2.241,2.24
			c-0.146,0.146-0.146,0.382,0,0.527l0.791,0.792c0.146,0.146,0.382,0.146,0.527,0l2.241-2.242l2.241,2.242
			c0.146,0.146,0.382,0.146,0.527,0l0.791-0.792c0.146-0.146,0.146-0.381,0-0.527L47.848,4.337z"/>
	</g>
</g>
<g>
	<g>
		<path fill-rule="evenodd" clip-rule="evenodd" fill="#FFFFFF" d="M26.473,0.063h-0.469l-2,1.469c0,0-0.313,0.5-0.906,0.5h-2.125
			c0,0-0.969,0.063-0.969,1V6c0,0-0.125,1,1,1h2c0,0,0.688,0.125,1.031,0.5l1.969,1.469l0.5,0.063c0,0,0.531,0,0.531-0.5V0.563
			C27.035,0.563,27.004,0.063,26.473,0.063z M28.027,7h1V2h-1V7z M32.027,0v9h1V0H32.027z M30.027,8h1V1h-1V8z"/>
	</g>
</g>
</svg>
